<svg width="133" height="38" viewBox="0 0 133 38" fill="none" xmlns="http://www.w3.org/2000/svg">
<g id="SI_Logo" clip-path="url(#clip0_2110_6034)">
<g id="Group 127">
<path id="Vector" d="M46.6565 31.1879H45.2617V23.2574H46.6565V31.1879ZM55.9151 23.2574H54.5203V28.8568L50.0954 23.2574H48.7968V31.1879H50.1916V25.6366L54.5684 31.1879H55.891L55.9151 23.2574ZM61.326 24.5311H64.2117V23.2334H57.0213V24.5311H59.9071V31.1638H61.3019V24.5311H61.326ZM66.7609 26.5738V24.5551H71.1136V23.2574H65.3661V31.1879H71.1136V29.8902H66.7609V27.8715H70.6326V26.5978H66.7609V26.5738ZM77.799 31.1879H79.5064L77.3902 28.28C78.3762 27.8475 79.0014 26.9823 79.0014 25.8769C79.0014 24.1466 77.7269 23.1853 75.827 23.1853C74.8411 23.1853 73.5425 23.2334 72.9172 23.2574V31.1879H74.312V28.6165H75.4423C75.6347 28.6165 75.827 28.6165 76.0194 28.6165L77.799 31.1879ZM74.312 27.3668V24.459C74.8411 24.459 75.3701 24.435 75.8751 24.435C76.9333 24.435 77.6307 24.8676 77.6307 25.8529C77.6307 26.742 76.9092 27.3668 75.9713 27.3668H74.312ZM82.4884 29.5537H86.4323L87.1538 31.1638H88.7169L85.1097 23.1853H83.8111L80.2038 31.1638H81.791L82.4884 29.5537ZM84.4604 25.0117L85.9033 28.28H83.0415L84.4604 25.0117ZM96.4364 23.4257C95.5707 23.1853 94.6328 23.0652 93.6708 23.0652C91.0255 23.0652 89.27 24.7234 89.27 27.1986C89.27 29.6979 91.0255 31.3561 93.6468 31.3561C94.5366 31.3561 95.5466 31.1879 96.4604 30.9235L96.1959 29.6979C95.234 29.9142 94.3201 30.0584 93.7189 30.0584C91.9394 30.0584 90.761 28.9049 90.761 27.2227C90.761 25.6366 91.8432 24.459 93.8632 24.459C94.5125 24.459 95.234 24.5792 96.1719 24.7955L96.4364 23.4257ZM101.799 24.5311H104.685V23.2334H97.4945V24.5311H100.38V31.1638H101.775V24.5311H101.799ZM107.21 23.2574H105.815V31.1879H107.21V23.2574ZM113.366 31.1879L116.805 23.2574H115.218L112.693 29.2894L110.216 23.2574H108.605L112.044 31.1879H113.366ZM119.595 26.5738V24.5551H123.948V23.2574H118.2V31.1879H123.948V29.8902H119.595V27.8715H123.467V26.5978H119.595V26.5738Z" fill="#F4B418"/>
<path id="Vector_2" d="M57.4366 11.2163C55.1504 10.5504 53.7453 10.2887 52.6022 10.2887C51.9354 10.2887 51.5544 10.4077 51.5544 10.812C51.5544 11.3352 52.245 11.3352 53.7215 11.692C56.0792 12.2628 58.3177 13.119 58.3177 15.9492C58.3177 18.6367 56.2459 20.3016 52.5546 20.3016C50.4351 20.3016 48.1728 19.7546 45.958 19.0886L46.9582 15.3784C49.3635 16.1395 50.959 16.4962 51.9116 16.5676C52.9833 16.6151 53.1023 16.187 53.1023 16.0206C53.1023 15.5449 52.2927 15.4498 51.0543 15.1644C47.9584 14.4509 46.5057 13.5471 46.5057 11.0974C46.5057 8.12446 48.649 6.55475 52.4117 6.55475C54.0311 6.55475 56.3411 6.84015 58.2225 7.41095L57.4366 11.2163ZM71.5347 12.0249C71.5347 8.45742 69.3438 6.64988 65.3668 6.64988C63.4855 6.64988 61.9613 6.69745 59.6513 6.79258V19.9924H64.1999V17.2811H65.3668C69.32 17.2811 71.5347 15.3784 71.5347 12.0249ZM64.1999 13.4995V10.3601H65.343C66.3432 10.3601 66.8909 10.8833 66.8909 12.0249C66.8909 12.9763 66.3194 13.4995 65.343 13.4995H64.1999ZM86.5379 13.3806C86.5379 9.24228 83.6801 6.4834 79.3697 6.4834C75.0593 6.4834 72.2016 9.24228 72.2016 13.3806C72.2016 17.5189 75.0593 20.2778 79.3697 20.2778C83.6801 20.2778 86.5379 17.5189 86.5379 13.3806ZM81.894 13.3806C81.894 15.093 80.87 16.2108 79.3697 16.2108C77.8456 16.2108 76.8454 15.093 76.8454 13.3806C76.8454 11.6682 77.8456 10.5504 79.3697 10.5504C80.8938 10.5504 81.894 11.6682 81.894 13.3806ZM93.706 16.8768L95.373 19.9924H100.636L97.945 15.6638C99.0881 14.76 99.7073 13.3806 99.7073 11.6206C99.7073 8.36229 97.564 6.64988 93.7298 6.64988C91.7532 6.64988 90.0386 6.69745 87.8238 6.79258V19.9924H92.3724V16.8768H93.2774H93.706ZM92.3486 13.3092V10.3601H93.3012C94.5157 10.3601 95.0634 10.812 95.0634 11.7871C95.0634 12.7147 94.5157 13.333 93.3012 13.333L92.3486 13.3092ZM118.163 16.1157L123.403 9.71795V6.7688H112.805H111.924H100.35V10.6455H104.303V19.9924H108.852V10.6693H111.924H112.805H116.949L111.543 17.067V19.9924H123.593V16.1157H118.163ZM128.666 15.4022C126.308 15.4022 124.355 13.4519 124.355 11.0974C124.355 8.74283 126.308 6.79258 128.666 6.79258C131.023 6.79258 133 8.74283 133 11.0974C133 13.4519 131.047 15.4022 128.666 15.4022ZM128.666 7.64879C126.76 7.64879 125.26 9.19471 125.26 11.0498C125.26 12.9525 126.808 14.4509 128.666 14.4509C130.571 14.4509 132.071 12.9049 132.071 11.0498C132.143 9.17093 130.571 7.64879 128.666 7.64879ZM128.213 11.5968V13.2617H127.523V9.07579H128.689C129.213 9.07579 129.642 9.17093 129.88 9.38498C130.142 9.59903 130.261 9.90821 130.261 10.265C130.261 10.7882 129.999 11.145 129.475 11.359L130.642 13.1903H129.856L128.856 11.5255H128.213V11.5968ZM128.213 11.026H128.689C128.999 11.026 129.213 10.9547 129.38 10.8596C129.547 10.7644 129.594 10.5504 129.594 10.3363C129.594 10.1223 129.523 9.932 129.38 9.81308C129.213 9.71795 128.999 9.6466 128.689 9.6466H128.213V11.026Z" fill="#F4B418"/>
</g>
<g id="Group 126">
<path id="logo-path" d="M19.3307 0.180176C30.0063 0.180176 38.6613 8.79351 38.6613 19.4177C38.6613 23.3285 37.484 26.9543 35.4793 29.9943C34.4452 27.081 32.1064 25.3077 29.9426 23.9777C26.7288 21.9985 20.5398 21.0327 18.7261 20.621C16.9123 20.2093 14.6054 19.8768 14.6849 18.5785C14.7645 17.2643 17.326 16.6152 20.7785 17.2643C24.2468 17.9135 28.9403 20.621 28.9403 20.621L35.1293 12.4985C27.3652 7.57434 22.3376 7.33684 18.8693 7.33684C13.9372 7.33684 3.21382 9.39518 3.05472 19.6393C2.8638 31.5302 16.2441 32.116 19.9511 32.7652C23.6582 33.4143 24.4059 34.4118 24.1514 35.3143C23.8968 36.2168 21.8603 37.7527 17.2146 37.7368C12.8235 37.7368 9.21189 36.4227 6.07762 33.4143C2.35468 29.8677 0 24.9277 0 19.4177C0 8.79351 8.65504 0.180176 19.3307 0.180176ZM28.3994 25.9727C27.3016 25.9727 26.4106 26.8593 26.4106 27.9518C26.4106 29.0443 27.3016 29.931 28.3994 29.931C29.4971 29.931 30.3881 29.0443 30.3881 27.9518C30.404 26.8593 29.5131 25.9727 28.3994 25.9727ZM29.354 31.5777H27.4288C26.7129 31.5777 26.2992 32.1477 26.2992 32.8602V37.3252C27.9061 36.7393 29.5131 35.9793 30.4677 35.061V32.8602C30.4836 32.1477 30.0699 31.5777 29.354 31.5777Z" fill="#F4B418"/>
</g>
</g>
<defs>
<clipPath id="clip0_2110_6034">
<rect width="133" height="38" fill="white"/>
</clipPath>
</defs>
</svg> 